<?xml version="1.0" encoding="UTF-8"?>
<svg version="1.1" xmlns="http://www.w3.org/2000/svg" width="476" height="524">
<path d="M0 0 C1.57427205 -0.00243073 3.14854256 -0.00615278 4.72280884 -0.01106262 C8.97861523 -0.02043209 13.23419008 -0.01108203 17.48997831 0.00226951 C21.94665769 0.01361452 26.40332619 0.00947445 30.86001587 0.00752258 C38.33640311 0.00664112 45.81269941 0.01769361 53.2890625 0.03613281 C61.93929793 0.05734463 70.58940063 0.0607996 79.23965681 0.05457085 C87.56267832 0.04888425 95.885653 0.05451153 104.20866776 0.0657444 C107.75170379 0.070395 111.29471122 0.07126232 114.83774948 0.06915855 C119.00253391 0.06728016 123.16718244 0.0753447 127.33193588 0.09121895 C128.8630263 0.09547368 130.39413049 0.09630441 131.9252243 0.09352875 C134.00868054 0.09032364 136.09172637 0.09934549 138.17514038 0.11161804 C139.92663171 0.11469735 139.92663171 0.11469735 141.7135067 0.11783886 C144.43603516 0.37231445 144.43603516 0.37231445 146.43603516 2.37231445 C146.68213081 4.25823402 146.68213081 4.25823402 146.67654419 6.59902954 C146.68066818 7.9283828 146.68066818 7.9283828 146.68487549 9.28459167 C146.67768494 10.25922867 146.67049438 11.23386566 146.66308594 12.23803711 C146.66337799 13.26245407 146.66367004 14.28687103 146.66397095 15.34233093 C146.66257364 18.74043138 146.64699354 22.13831464 146.63134766 25.53637695 C146.62761895 27.88764323 146.62477131 30.23891106 146.62277222 32.59017944 C146.61512454 38.78804796 146.5954663 44.9858232 146.57336426 51.18365479 C146.55293024 57.504341 146.54377574 63.82504225 146.53369141 70.14575195 C146.51222149 82.55464717 146.47807188 94.96347307 146.43603516 107.37231445 C147.49870102 107.37009384 148.56136688 107.36787323 149.65623474 107.36558533 C159.64818407 107.34535443 169.64012926 107.33034257 179.63209438 107.32050228 C184.76963082 107.31527332 189.90715078 107.30817544 195.04467773 107.296875 C199.99834926 107.28604658 204.95200489 107.28003772 209.90568733 107.27743721 C211.80001132 107.27558288 213.69433439 107.27196211 215.58865166 107.2665844 C218.23237901 107.25937456 220.87603986 107.25832349 223.51977539 107.25878906 C224.31099289 107.25519379 225.10221039 107.25159851 225.91740417 107.24789429 C231.32198299 107.25826229 231.32198299 107.25826229 232.43603516 108.37231445 C232.53643799 109.99991099 232.56679564 111.63187025 232.56974792 113.26255798 C232.57401291 114.32122574 232.57827789 115.37989349 232.58267212 116.47064209 C232.58221893 117.64209778 232.58176575 118.81355347 232.58129883 120.02050781 C232.58633675 121.85933281 232.58633675 121.85933281 232.59147644 123.73530579 C232.59937233 127.107193 232.60265539 130.47901865 232.60329223 133.8509109 C232.60423971 136.66168156 232.60791615 139.47244626 232.61146432 142.28321463 C232.6196165 148.91244562 232.62204787 155.54166302 232.62133789 162.17089844 C232.62073691 169.01860122 232.6312909 175.86622528 232.64708155 182.71390814 C232.66013941 188.5848277 232.66552253 194.45572147 232.66488248 200.32665545 C232.66462697 203.83670951 232.66750713 207.34669366 232.67806053 210.85673332 C232.68950266 214.76942929 232.68500547 218.68201655 232.67895508 222.59472656 C232.68457458 223.76415802 232.69019409 224.93358948 232.69598389 226.13845825 C232.68969215 227.73068962 232.68969215 227.73068962 232.68327332 229.35508728 C232.68381808 230.2811122 232.68436285 231.20713713 232.68492413 232.16122341 C232.43603516 234.37231445 232.43603516 234.37231445 230.43603516 236.37231445 C227.78544485 236.56028114 225.24066244 236.62412693 222.58984375 236.59936523 C221.35541503 236.59972684 221.35541503 236.59972684 220.09604836 236.60009575 C217.42541411 236.59859993 214.75505713 236.58335499 212.08447266 236.56762695 C210.43839655 236.56468735 208.79231858 236.5626464 207.14624023 236.56152344 C201.03447675 236.55102651 194.92275325 236.52310422 188.81103516 236.49731445 C175.15728516 236.45606445 161.50353516 236.41481445 147.43603516 236.37231445 C147.76603516 281.25231445 148.09603516 326.13231445 148.43603516 372.37231445 C172.52603516 372.37231445 196.61603516 372.37231445 221.43603516 372.37231445 C225.93548508 382.49607678 225.93548508 382.49607678 227.20019531 386.67553711 C227.4882756 387.61688507 227.7763559 388.55823303 228.07316589 389.52810669 C228.37080338 390.52083588 228.66844086 391.51356506 228.97509766 392.53637695 C229.29791214 393.59525116 229.62072662 394.65412537 229.95332336 395.74508667 C230.6401416 397.99941091 231.32449684 400.25448681 232.00656128 402.51025391 C233.77739656 408.36626416 235.5659924 414.21684252 237.35400391 420.06762695 C237.70517776 421.21809509 238.05635162 422.36856323 238.41816711 423.55389404 C241.70058438 434.2854518 245.1164233 444.97026158 248.60449219 455.63647461 C248.9704248 456.75586426 249.33635742 457.87525391 249.71337891 459.02856445 C250.02525146 459.97538086 250.33712402 460.92219727 250.65844727 461.89770508 C250.91505127 462.71432617 251.17165527 463.53094727 251.43603516 464.37231445 C251.65976807 465.08194336 251.88350098 465.79157227 252.11401367 466.52270508 C252.67165977 469.72568221 251.08014641 471.68693275 249.43603516 474.37231445 C247.24853516 476.80981445 247.24853516 476.80981445 244.43603516 479.37231445 C243.86796143 479.9029248 243.2998877 480.43353516 242.71459961 480.98022461 C238.06336338 485.21465789 233.40020368 488.44302334 227.81103516 491.30981445 C226.99328613 491.73166016 226.17553711 492.15350586 225.33300781 492.58813477 C165.63075225 522.5238586 84.9197099 521.90520385 22.13476562 501.50439453 C-10.26364486 490.43936363 -39.91732386 470.78480785 -55.81396484 439.62231445 C-61.5076739 427.94660728 -65.29886284 415.77446999 -67.87646484 403.05981445 C-68.03598633 402.30418213 -68.19550781 401.5485498 -68.35986328 400.77001953 C-71.91482861 381.59635718 -70.70419139 361.3976633 -70.66535878 341.98261428 C-70.65900381 338.25511985 -70.65851203 334.52762414 -70.65733337 330.80012512 C-70.65425518 323.7778305 -70.64609039 316.75555191 -70.63598388 309.73326427 C-70.62471207 301.72325839 -70.61928473 293.71325166 -70.61428845 285.7032398 C-70.60390382 269.25958872 -70.58637424 252.81595365 -70.56396484 236.37231445 C-71.33626434 236.37675568 -72.10856384 236.3811969 -72.90426636 236.38577271 C-80.17341122 236.4258045 -87.44250283 236.45627588 -94.71172905 236.4759388 C-98.44914314 236.48638743 -102.18646635 236.50056616 -105.92382812 236.52319336 C-109.52886985 236.5448835 -113.13382401 236.55687494 -116.73892593 236.56206894 C-118.11608382 236.56577161 -119.49323678 236.57300179 -120.87035751 236.58377457 C-122.79536029 236.5982378 -124.72045071 236.59913093 -126.64550781 236.59936523 C-127.74248993 236.60380646 -128.83947205 236.60824768 -129.96969604 236.61282349 C-132.56396484 236.37231445 -132.56396484 236.37231445 -134.56396484 234.37231445 C-134.81564713 232.50759888 -134.81564713 232.50759888 -134.81793213 230.19702148 C-134.82357178 229.32209045 -134.82921143 228.44715942 -134.83502197 227.54571533 C-134.83097351 226.58357117 -134.82692505 225.621427 -134.82275391 224.63012695 C-134.82625854 223.61867615 -134.82976318 222.60722534 -134.83337402 221.56512451 C-134.84220378 218.20911878 -134.83633775 214.85332247 -134.82958984 211.49731445 C-134.83093613 209.17325805 -134.83287636 206.84920192 -134.83538818 204.52514648 C-134.83834114 199.64930546 -134.83403628 194.77353761 -134.82470703 189.89770508 C-134.81331245 183.63597795 -134.81987101 177.37442225 -134.83185196 171.11270142 C-134.83906592 166.31216125 -134.83678476 161.51166198 -134.83159637 156.71112061 C-134.83025859 154.40175354 -134.83191206 152.0923828 -134.83655548 149.78302002 C-134.84161306 146.56008006 -134.8339212 143.3374209 -134.82275391 140.11450195 C-134.82680237 139.15235779 -134.83085083 138.19021362 -134.83502197 137.19891357 C-134.82938232 136.32398254 -134.82374268 135.44905151 -134.81793213 134.54760742 C-134.81717808 133.78511688 -134.81642403 133.02262634 -134.81564713 132.23703003 C-134.56396484 130.37231445 -134.56396484 130.37231445 -132.56396484 128.37231445 C-130.78831845 127.79923794 -128.9920679 127.28956038 -127.18896484 126.80981445 C-109.28882593 121.46353403 -91.53967118 112.63190777 -77.20068359 100.5871582 C-75.56396484 99.37231445 -75.56396484 99.37231445 -73.56396484 99.37231445 C-73.56396484 98.71231445 -73.56396484 98.05231445 -73.56396484 97.37231445 C-72.45921253 96.36689954 -71.30223242 95.41867618 -70.12646484 94.49731445 C-54.14669077 80.8932944 -45.68653408 60.16631984 -40.56396484 40.37231445 C-40.36029297 39.6349707 -40.15662109 38.89762695 -39.94677734 38.13793945 C-38.90114873 34.2449837 -38.23653245 30.35015365 -37.62646484 26.37231445 C-36.34424747 18.55078845 -34.81334229 12.7289237 -28.56396484 7.37231445 C-27.41927734 6.32043945 -27.41927734 6.32043945 -26.25146484 5.24731445 C-18.0515282 -0.47357158 -9.59185898 -0.05192246 0 0 Z M118.37353516 51.62231445 C96.55430468 65.19187121 64.23956123 59.19062751 40.43603516 55.37231445 C40.03513672 56.61883789 39.63423828 57.86536133 39.22119141 59.1496582 C32.91087467 78.25426953 24.51193908 94.96939082 10.68603516 109.8137207 C9.22748572 111.29936161 9.22748572 111.29936161 9.43603516 113.37231445 C8.77603516 113.37231445 8.11603516 113.37231445 7.43603516 113.37231445 C7.43603516 114.03231445 7.43603516 114.69231445 7.43603516 115.37231445 C5.45603516 116.36231445 5.45603516 116.36231445 3.43603516 117.37231445 C3.43603516 118.03231445 3.43603516 118.69231445 3.43603516 119.37231445 C2.84048828 119.64172852 2.24494141 119.91114258 1.63134766 120.1887207 C-0.56524009 121.373002 -1.92331511 122.56548899 -3.68896484 124.30981445 C-16.0150384 135.24863619 -31.5286048 142.05272769 -46.56396484 148.37231445 C-46.3611792 149.02095459 -46.15839355 149.66959473 -45.94946289 150.33789062 C-40.13157768 169.26921557 -40.24301119 188.95564382 -43.56396484 208.37231445 C-43.89781849 210.37222766 -44.23122447 212.37221572 -44.56396484 214.37231445 C-43.8167215 214.38262192 -43.06947815 214.39292938 -42.29959106 214.40354919 C-35.26581816 214.50142892 -28.23213144 214.60392968 -21.19850349 214.71165371 C-17.58223664 214.766875 -13.9659617 214.8202937 -10.34960938 214.86962891 C-6.86121363 214.91728423 -3.37291715 214.96962742 0.11536026 215.0252552 C2.09735703 215.05562677 4.07942671 215.08111232 6.06149292 215.10655212 C7.26258698 215.12649734 8.46368103 215.14644257 9.70117188 215.16699219 C10.76262421 215.18253647 11.82407654 215.19808075 12.91769409 215.21409607 C15.43603516 215.37231445 15.43603516 215.37231445 17.43603516 216.37231445 C17.44100038 217.51638071 17.44100038 217.51638071 17.4460659 218.68355942 C17.52784894 237.37834847 17.62011318 256.07306012 17.72356224 274.76774216 C17.77334872 283.80893065 17.81979046 292.85011158 17.85791016 301.89135742 C17.89120544 309.78621582 17.93123227 317.68100888 17.97882521 325.57579446 C18.00372435 329.74282466 18.02560551 333.90981362 18.03937912 338.07689667 C18.09317981 353.71104601 18.24307441 369.29742335 19.32128906 384.90063477 C19.39608175 385.9987788 19.47087444 387.09692284 19.54793358 388.22834396 C21.57647926 414.21643613 30.26402456 438.81029699 46.43603516 459.37231445 C46.98904297 460.08000977 47.54205078 460.78770508 48.11181641 461.5168457 C65.10355328 482.07725285 92.28121698 492.88642682 118.23388672 495.85668945 C154.6046137 499.24152668 191.94190826 493.59870525 222.43603516 472.37231445 C224.82584783 470.2322776 224.82584783 470.2322776 226.43603516 468.37231445 C225.80697266 467.80125977 225.17791016 467.23020508 224.52978516 466.6418457 C207.03331818 450.06763225 199.98253435 427.95642714 198.43603516 404.37231445 C197.61361328 404.57727539 196.79119141 404.78223633 195.94384766 404.9934082 C177.77938468 409.37721047 158.24099889 411.33166996 141.23291016 402.1887207 C132.74147958 396.67403464 128.42594386 388.88099407 125.43603516 379.37231445 C124.58531543 375.09324538 124.31229338 371.04954082 124.31578064 366.69046021 C124.314499 365.7210938 124.314499 365.7210938 124.31319147 364.73214424 C124.31155308 362.58108493 124.31703099 360.43010477 124.32250977 358.27905273 C124.32279202 356.73138938 124.32263316 355.1837259 124.32206726 353.63606262 C124.32178077 349.44439106 124.32765355 345.25274821 124.33464122 341.06108332 C124.34089943 336.67686261 124.34148051 332.29264123 124.34266663 327.90841675 C124.34577266 319.61064909 124.35397625 311.31289463 124.36401612 303.01513278 C124.37519983 293.56656579 124.3806934 284.11799817 124.38571155 274.6694262 C124.39615947 255.23704662 124.41449592 235.80468513 124.43603516 216.37231445 C146.21603516 216.04231445 167.99603516 215.71231445 190.43603516 215.37231445 C189.44603516 210.75231445 188.45603516 206.13231445 187.43603516 201.37231445 C183.27466661 177.65028839 186.05492884 155.69044182 191.43603516 132.37231445 C157.77603516 131.87731445 157.77603516 131.87731445 123.43603516 131.37231445 C123.10603516 104.31231445 122.77603516 77.25231445 122.43603516 49.37231445 C120.93698462 49.27363505 120.93698462 49.27363505 118.37353516 51.62231445 Z " fill="#090909" transform="translate(179.56396484375,1.627685546875)"/>
<path d="M0 0 C0 0.66 0 1.32 0 2 C-0.5775 2.226875 -1.155 2.45375 -1.75 2.6875 C-4.56427613 4.32916107 -6.02737733 6.43559053 -8 9 C-8.99 9.495 -8.99 9.495 -10 10 C-13.1379607 16.53333224 -14.58644329 23.32343774 -15.5078125 30.46875 C-16 33 -16 33 -18 36 C-17.68144896 33.66395906 -17.34493631 31.3322398 -17 29 C-16.79890625 27.58654297 -16.79890625 27.58654297 -16.59375 26.14453125 C-15.25016133 17.31043577 -14.09396133 10.08053828 -7 4 C-6.113125 3.236875 -5.22625 2.47375 -4.3125 1.6875 C-2 0 -2 0 0 0 Z " fill="#C2C2C2" transform="translate(158,5)"/>
<path d="M0 0 C0 0.66 0 1.32 0 2 C-0.556875 2.226875 -1.11375 2.45375 -1.6875 2.6875 C-4.63246684 4.35896766 -6.68156544 6.55276352 -9 9 C-9 5 -9 5 -7.5390625 3.515625 C-6.90742188 3.09796875 -6.27578125 2.6803125 -5.625 2.25 C-4.99851563 1.82203125 -4.37203125 1.3940625 -3.7265625 0.953125 C-2 0 -2 0 0 0 Z " fill="#858585" transform="translate(158,5)"/>
</svg>
